<svg width="124" height="124" viewBox="0 0 124 124" fill="none" xmlns="http://www.w3.org/2000/svg">
    <rect x="1.5" y="1.5" width="121" height="121" fill="black" stroke="white" stroke-width="3" />
    <path
        d="M54.6477 27.1818H71.2841V75.4545C71.2614 79.9773 70.1818 83.9318 68.0455 87.3182C65.9091 90.6818 62.9545 93.2955 59.1818 95.1591C55.4318 97.0227 51.0909 97.9545 46.1591 97.9545C41.7955 97.9545 37.8295 97.1932 34.2614 95.6705C30.7159 94.1477 27.8864 91.7841 25.7727 88.5795C23.6818 85.375 22.6477 81.2727 22.6705 76.2727H39.4773C39.5455 78.0682 39.8864 79.6023 40.5 80.875C41.1364 82.125 42.0114 83.0682 43.125 83.7045C44.2386 84.3409 45.5682 84.6591 47.1136 84.6591C48.7273 84.6591 50.0909 84.3182 51.2045 83.6364C52.3182 82.9318 53.1591 81.8977 53.7273 80.5341C54.3182 79.1705 54.625 77.4773 54.6477 75.4545V27.1818ZM87.9716 97.9886C85.517 97.9886 83.4148 97.125 81.6648 95.3977C79.9375 93.6705 79.0852 91.5795 79.108 89.125C79.0852 86.7159 79.9375 84.6591 81.6648 82.9545C83.4148 81.2273 85.517 80.3636 87.9716 80.3636C90.2898 80.3636 92.3352 81.2273 94.108 82.9545C95.9034 84.6591 96.8125 86.7159 96.8352 89.125C96.8125 90.7614 96.3807 92.25 95.5398 93.5909C94.7216 94.9318 93.642 96 92.3011 96.7955C90.983 97.5909 89.5398 97.9886 87.9716 97.9886Z"
        fill="white" />
</svg>